<?xml version="1.0" encoding="iso-8859-1"?>
<!-- Generator: Adobe Illustrator 16.0.0, SVG Export Plug-In . SVG Version: 6.00 Build 0)  -->
<!DOCTYPE svg PUBLIC "-//W3C//DTD SVG 1.1//EN" "http://www.w3.org/Graphics/SVG/1.1/DTD/svg11.dtd">
<svg version="1.1" id="Capa_1" xmlns="http://www.w3.org/2000/svg" xmlns:xlink="http://www.w3.org/1999/xlink" x="0px" y="0px"
	 width="161.967px" height="161.967px" viewBox="0 0 161.967 161.967" style="enable-background:new 0 0 161.967 161.967;"
	 xml:space="preserve">
<g>
	<g>
		<path d="M144.772,94.754h-1.652c3.953-2.177,7.513-4.175,9.532-5.411c7.557-4.656,7.557-10.511,7.557-17.001
			c0-8.46-6.49-15.354-14.741-16.165c3.716-2.047,7.026-3.917,8.941-5.094c7.559-4.657,7.559-10.512,7.559-17.002
			c0-8.998-7.329-16.328-16.328-16.328H47.777c-7.902,0-39.459,14.911-43.827,25.055l-0.042,0.145
			c-1.331,2.357-2.154,5.042-2.154,7.939c0,8.999,7.325,16.328,16.328,16.328h0.272c-7.667,4.487-14.318,9.582-16.157,13.844
			l-0.044,0.148C0.824,83.57,0,86.251,0,89.151c0,8.996,7.324,16.328,16.328,16.328h3.733c-8.012,4.597-15.062,9.916-16.967,14.325
			l-0.045,0.143c-1.328,2.358-2.152,5.045-2.152,7.939c0,9.002,7.325,16.328,16.33,16.328H34.58h82.176h6.615l1.308-0.322
			c0.92-0.481,22.539-11.917,28.865-15.814c7.551-4.656,7.551-10.517,7.551-17.001C161.095,102.075,153.774,94.754,144.772,94.754z
			 M145.631,23.361c5.91,0,10.725,4.811,10.725,11.007c0,5.951,0,8.936-4.886,11.945c-3.239,1.994-10.873,6.17-17.443,9.7h-0.984
			c0.542-1.621,0.901-3.322,0.901-5.123c0-8.999-7.322-16.329-16.329-16.329H21.724c9.688-5.816,21.949-11.207,26.046-11.207h97.861
			V23.361z M39.136,67.219h78.479h6.621l1.303-0.326c0.394-0.206,4.669-2.465,9.904-5.277h8.438c5.91,0,10.725,4.807,10.725,11.004
			c0,5.951,0,8.936-4.89,11.945c-3.384,2.091-11.584,6.556-18.339,10.188h-0.234c0.645-1.751,1.05-3.622,1.05-5.603
			c0-8.995-7.321-16.329-16.328-16.329H19.97c3.313-1.989,6.906-3.913,10.389-5.604H39.136L39.136,67.219z M150.608,123.307
			c-3.433,2.124-11.827,6.687-18.635,10.342c0.69-1.799,1.105-3.731,1.105-5.756c0-8.995-7.321-16.329-16.326-16.329H20.862
			c3.625-2.177,7.592-4.287,11.388-6.084h5.131h78.482h6.612l1.312-0.328c0.374-0.196,4.193-2.217,8.989-4.789h11.99
			c5.91,0,10.725,4.812,10.725,11.005C155.498,117.31,155.498,120.298,150.608,123.307z"/>
	</g>
</g>
<g>
</g>
<g>
</g>
<g>
</g>
<g>
</g>
<g>
</g>
<g>
</g>
<g>
</g>
<g>
</g>
<g>
</g>
<g>
</g>
<g>
</g>
<g>
</g>
<g>
</g>
<g>
</g>
<g>
</g>
</svg>
