<?xml version="1.0" encoding="UTF-8" standalone="no"?>
<!-- Generator: Adobe Illustrator 18.1.1, SVG Export Plug-In . SVG Version: 6.00 Build 0)  -->

<svg
   xmlns:dc="http://purl.org/dc/elements/1.1/"
   xmlns:cc="http://creativecommons.org/ns#"
   xmlns:rdf="http://www.w3.org/1999/02/22-rdf-syntax-ns#"
   xmlns:svg="http://www.w3.org/2000/svg"
   xmlns="http://www.w3.org/2000/svg"
   xmlns:sodipodi="http://sodipodi.sourceforge.net/DTD/sodipodi-0.dtd"
   xmlns:inkscape="http://www.inkscape.org/namespaces/inkscape"
   version="1.1"
   id="Capa_1"
   x="0px"
   y="0px"
   viewBox="0 0 32 32"
   style="enable-background:new 0 0 32 32;"
   xml:space="preserve"
   inkscape:version="0.48.4 r9939"
   width="100%"
   height="100%"
   sodipodi:docname="pages.svg"><metadata
     id="metadata47"><rdf:RDF><cc:Work
         rdf:about=""><dc:format>image/svg+xml</dc:format><dc:type
           rdf:resource="http://purl.org/dc/dcmitype/StillImage" /><dc:title></dc:title></cc:Work></rdf:RDF></metadata><defs
     id="defs45" /><sodipodi:namedview
     pagecolor="#ffffff"
     bordercolor="#666666"
     borderopacity="1"
     objecttolerance="10"
     gridtolerance="10"
     guidetolerance="10"
     inkscape:pageopacity="0"
     inkscape:pageshadow="2"
     inkscape:window-width="1366"
     inkscape:window-height="744"
     id="namedview43"
     showgrid="false"
     inkscape:zoom="7.375"
     inkscape:cx="-8.7457627"
     inkscape:cy="16"
     inkscape:window-x="0"
     inkscape:window-y="24"
     inkscape:window-maximized="1"
     inkscape:current-layer="Capa_1" /><g
     id="g3"
     style="stroke:none;stroke-opacity:1;fill:#ffffff;fill-opacity:1"><g
       id="g5"
       style="stroke:none;stroke-opacity:1;fill:#ffffff;fill-opacity:1"><path
         style="fill:#ffffff;stroke:none;stroke-opacity:1;fill-opacity:1"
         d="M24,14.059V5.584L18.414,0H0v32h24v-0.059c4.499-0.5,7.998-4.31,8-8.941    C31.998,18.366,28.499,14.556,24,14.059z M17.998,2.413L21.586,6h-3.588C17.998,6,17.998,2.413,17.998,2.413z M2,30V1.998h14    v6.001h6v6.06c-1.752,0.194-3.352,0.89-4.652,1.941H4v2h11.517c-0.412,0.616-0.743,1.289-0.994,2H4v2h10.059    C14.022,22.329,14,22.661,14,23c0,2.829,1.308,5.352,3.35,7H2z M23,29.883c-3.801-0.009-6.876-3.084-6.885-6.883    c0.009-3.801,3.084-6.876,6.885-6.885c3.799,0.009,6.874,3.084,6.883,6.885C29.874,26.799,26.799,29.874,23,29.883z"
         id="path7" /><rect
         x="4"
         y="12"
         style="fill:#ffffff;stroke:none;stroke-opacity:1;fill-opacity:1"
         width="16"
         height="2"
         id="rect9" /><polygon
         style="fill:#ffffff;stroke:none;stroke-opacity:1;fill-opacity:1"
         points="24.002,22 24.002,18 22,18 22,22 18,22 18,24 22,24 22,28 24.002,28 24.002,24 28,24     28,22   "
         id="polygon11" /></g></g><g
     id="g13" /><g
     id="g15" /><g
     id="g17" /><g
     id="g19" /><g
     id="g21" /><g
     id="g23" /><g
     id="g25" /><g
     id="g27" /><g
     id="g29" /><g
     id="g31" /><g
     id="g33" /><g
     id="g35" /><g
     id="g37" /><g
     id="g39" /><g
     id="g41" /></svg>