<?xml version="1.0" standalone="no"?>
<!DOCTYPE svg PUBLIC "-//W3C//DTD SVG 1.1//EN" "http://www.w3.org/Graphics/SVG/1.1/DTD/svg11.dtd" >
<svg xmlns="http://www.w3.org/2000/svg">
<metadata></metadata>
<defs>
<font id="plumblightcregular" horiz-adv-x="1052" >
<font-face units-per-em="2048" ascent="1565" descent="-483" />
<missing-glyph horiz-adv-x="522" />
<glyph horiz-adv-x="0" />
<glyph horiz-adv-x="682" />
<glyph unicode=" "  horiz-adv-x="522" />
<glyph unicode="&#x09;" horiz-adv-x="522" />
<glyph unicode="&#xa0;" horiz-adv-x="522" />
<glyph unicode="!" horiz-adv-x="622" d="M260 76q0 34 24 58t58 24t58 -24t24 -56q0 -35 -24 -59.5t-58 -24.5t-58 24t-24 58zM285 1458h114l-12 -1065h-90z" />
<glyph unicode="&#x22;" horiz-adv-x="835" d="M195 1139v319h129v-319h-129zM512 1139v319h129v-319h-129z" />
<glyph unicode="#" horiz-adv-x="1308" d="M172 492v90h211l51 313h-203v92h215l74 471h107l-76 -471h358l74 471h102l-73 -471h192v-92h-205l-51 -313h197v-90h-211l-78 -492h-104l79 492h-360l-76 -492h-104l78 492h-197zM485 582h359l51 313h-358z" />
<glyph unicode="$" horiz-adv-x="1202" d="M104 180l78 78q59 -56 93.5 -81.5t80.5 -47.5q70 -31 187 -41v604l-33 4q-166 21 -270.5 117.5t-104.5 257.5q0 160 98 266q60 63 135 92t175 39v183h92v-183q119 -10 192 -41q51 -21 86.5 -43t94.5 -71l-72 -72q-51 42 -80 61.5t-68 36.5q-64 26 -153 35v-594l59 -10 q105 -19 160.5 -39.5t99.5 -56.5q127 -105 127 -285q0 -154 -98 -260q-52 -55 -127 -90q-45 -22 -89.5 -31.5t-131.5 -17.5v-223h-92v221q-87 6 -135.5 16.5t-104.5 34.5q-57 25 -96.5 53t-102.5 88zM244 1075q0 -120 72.5 -188.5t226.5 -91.5v579q-88 -10 -144 -37 q-155 -74 -155 -262zM635 88q89 9 151.5 30.5t112.5 74.5q72 78 72 196q0 132 -80 203q-37 34 -84 51t-135 27q-8 1 -18.5 3t-18.5 3v-588z" />
<glyph unicode="%" horiz-adv-x="1695" d="M141 979v219q0 122 75.5 198.5t195.5 76.5q118 0 193 -76.5t75 -198.5v-219q0 -120 -75 -196t-193 -76q-120 0 -195.5 76t-75.5 196zM231 983q0 -199 181 -199q178 0 178 199v211q0 201 -180 201q-88 0 -133.5 -51.5t-45.5 -149.5v-211zM463 0l680 1458h92l-680 -1458 h-92zM1016 260v219q0 122 75 198.5t195 76.5q118 0 193 -76.5t75 -198.5v-219q0 -121 -74.5 -197.5t-193.5 -76.5q-120 0 -195 76t-75 198zM1106 264q0 -201 180 -201q178 0 178 201v211q0 201 -180 201q-88 0 -133 -51.5t-45 -149.5v-211z" />
<glyph unicode="&#x26;" horiz-adv-x="1527" d="M172 403q0 140 80 244q44 55 90.5 93.5t163.5 115.5q-81 98 -113 154q-49 82 -49 172q0 121 86 204.5t211 83.5q124 0 210.5 -84t86.5 -206q0 -78 -39.5 -140t-128.5 -125q-18 -13 -54 -37l-54 -36l417 -506q47 72 62 129q13 43 17.5 90t6.5 143h109q-3 -134 -21 -217 q-17 -69 -39 -116t-67 -111l209 -254h-142l-141 172q-63 -59 -127 -98q-148 -86 -321 -86q-201 0 -327 114.5t-126 300.5zM283 406q0 -143 95.5 -231.5t250.5 -88.5q91 0 176 31q53 20 95 46.5t112 84.5l-443 534q-94 -63 -130.5 -92t-76.5 -72q-79 -85 -79 -212zM455 1184 q0 -58 30 -113q34 -58 113 -156l84 58q81 55 114 101.5t33 105.5q0 82 -54 137t-134 55t-133 -53.5t-53 -134.5z" />
<glyph unicode="'" horiz-adv-x="518" d="M195 1139v319h129v-319h-129z" />
<glyph unicode="(" horiz-adv-x="581" d="M199 162v1134q0 117 39 191q7 14 14.5 27t19 27t17 21.5t21 24t18.5 20t23.5 23.5t21.5 21l71 -72l-15.5 -15.5l-16 -16t-14.5 -15t-15.5 -17t-13 -15.5t-13.5 -17.5t-11 -17.5t-11 -19q-31 -67 -31 -162v-1110q0 -98 31 -162q5 -9 11 -19t11 -17.5t13.5 -17.5t13 -15.5 t15.5 -17t14.5 -15l16 -16l15.5 -15.5l-71 -72q-85 85 -103 111q-38 53 -54.5 109t-16.5 135z" />
<glyph unicode=")" horiz-adv-x="581" d="M133 -117q4 4 24 23.5t27 27t21 23.5t23 30t16 29q28 64 28 158v1110q0 97 -28 158q-7 15 -16 29t-23 30t-21 23.5t-27 27t-24 23.5l76 76q76 -76 102 -111q40 -54 56 -108.5t16 -135.5v-1134q0 -65 -8.5 -106.5t-30.5 -84.5q-7 -14 -14.5 -26.5t-18.5 -27t-17 -22 t-22 -24t-19 -20t-23 -23.5l-21 -21z" />
<glyph unicode="*" horiz-adv-x="956" d="M147 975l252 139l-252 139l46 78l245 -149l-6 288h92l-6 -288l246 149l45 -78l-252 -139l252 -139l-45 -78l-246 150l6 -289h-92l6 289l-245 -150z" />
<glyph unicode="+" d="M109 492v96h370v368h96v-368h369v-96h-369v-371h-96v371h-370z" />
<glyph unicode="," horiz-adv-x="528" d="M94 -233l113 415h151l-163 -415h-101z" />
<glyph unicode="-" horiz-adv-x="872" d="M168 492v96h537v-96h-537z" />
<glyph unicode="." horiz-adv-x="528" d="M170 88q0 38 28 66t66 28t66 -27.5t28 -64.5q0 -40 -28 -68t-66 -28t-66 28t-28 66z" />
<glyph unicode="/" horiz-adv-x="692" d="M0 -152l584 1762h108l-583 -1762h-109z" />
<glyph unicode="0" d="M143 377v704q0 171 107.5 280t275.5 109q167 0 275 -109.5t108 -279.5v-704q0 -171 -107.5 -280t-275.5 -109t-275.5 109t-107.5 280zM248 387q0 -140 75.5 -223.5t202.5 -83.5t203 83.5t76 223.5v684q0 140 -76 223.5t-203 83.5t-202.5 -83.5t-75.5 -223.5v-684z" />
<glyph unicode="1" d="M272 1106v125l265 227h104v-1458h-104v1339z" />
<glyph unicode="2" d="M147 0v92l586 768q82 109 82 227q0 134 -75.5 212.5t-204.5 78.5q-130 0 -205 -75q-34 -34 -51 -78q-23 -55 -25 -138h-104q5 103 30 164q44 105 136.5 162t218.5 57q175 0 280 -105t105 -280q0 -79 -23.5 -143t-77.5 -135l-547 -715h648v-92h-773z" />
<glyph unicode="3" d="M86 354h104q7 -68 31 -121q37 -74 110 -114.5t169 -40.5q141 0 226 86.5t85 232.5q0 149 -80 226t-237 77h-25v93h25q140 0 214 73.5t74 214.5q0 138 -76.5 218.5t-207.5 80.5q-246 0 -289 -266h-105q13 102 43 156q50 97 141.5 150t211.5 53q173 0 280 -107.5 t107 -282.5q0 -159 -92 -254q-39 -39 -115 -75q52 -21 77.5 -35.5t51.5 -38.5q106 -97 106 -287q0 -187 -112.5 -297t-304.5 -110q-274 0 -373 207q-29 59 -39 161z" />
<glyph unicode="4" d="M88 240v92l537 1126h110l-536 -1126h467v463h104v-463h195v-92h-195v-240h-104v240h-578z" />
<glyph unicode="5" d="M152 322h104q12 -74 35 -121q67 -123 233 -123q130 0 207 74q48 48 68 121.5t20 201.5q0 204 -65.5 297.5t-210.5 93.5q-201 0 -260 -153h-93v745h701v-92h-608v-516q32 34 51 48t49 26q75 34 174 34q188 0 277.5 -119.5t89.5 -369.5q0 -145 -26 -231.5t-87 -147.5 q-104 -104 -283 -104q-339 0 -376 336z" />
<glyph unicode="6" d="M145 395q0 139 82 307l375 756h105l-336 -674q80 35 168 35q170 0 274.5 -112t104.5 -295q0 -190 -107 -307t-281 -117q-175 0 -280 111t-105 296zM250 403q0 -148 76 -235.5t204 -87.5q126 0 204.5 88t78.5 229q0 151 -77 240.5t-206 89.5t-204.5 -88t-75.5 -236z" />
<glyph unicode="7" d="M176 1137v321h764v-92l-516 -1366h-107l517 1366h-553v-229h-105z" />
<glyph unicode="8" d="M111 393q0 147 96 260q52 58 135 105q-81 49 -115 88q-86 99 -86 241q0 166 109 274.5t276 108.5t276 -108.5t109 -274.5q0 -138 -86 -241q-38 -43 -112 -88q53 -32 79.5 -53t53.5 -52q96 -110 96 -260q0 -173 -119 -289t-297 -116t-296.5 116t-118.5 289zM215 393 q0 -133 89.5 -223t221.5 -90q130 0 221 89.5t91 217.5q0 138 -89 230t-223 92q-132 0 -221.5 -91t-89.5 -225zM246 1090q0 -128 78 -208.5t202 -80.5q122 0 201.5 79.5t79.5 202.5q0 132 -78 213.5t-203 81.5q-123 0 -201.5 -80.5t-78.5 -207.5z" />
<glyph unicode="9" d="M135 1047q0 190 107 306.5t280 116.5q174 0 279.5 -111.5t105.5 -297.5q0 -140 -82 -305l-374 -756h-105l336 674q-80 -35 -170 -35q-170 0 -273.5 112t-103.5 296zM240 1057q0 -148 76.5 -237t203.5 -89t205 87.5t78 230.5q0 152 -76 240.5t-207 88.5q-128 0 -204 -87.5 t-76 -233.5z" />
<glyph unicode=":" horiz-adv-x="528" d="M170 88q0 38 28 66t66 28t66 -27.5t28 -64.5q0 -40 -28 -68t-66 -28t-66 28t-28 66zM170 825q0 38 28 66.5t66 28.5t66 -28t28 -65q0 -40 -28 -68t-66 -28t-66 28t-28 66z" />
<glyph unicode=";" horiz-adv-x="528" d="M94 -233l113 415h151l-163 -415h-101zM170 825q0 38 28 66.5t66 28.5t66 -28t28 -65q0 -40 -28 -68t-66 -28t-66 28t-28 66z" />
<glyph unicode="&#x3c;" d="M84 487v111l885 356v-110l-758 -301l758 -299v-111z" />
<glyph unicode="=" d="M109 334v96h835v-96h-835zM109 647v96h835v-96h-835z" />
<glyph unicode="&#x3e;" d="M84 133v111l758 299l-758 301v110l885 -356v-111z" />
<glyph unicode="?" horiz-adv-x="999" d="M164 1110q9 165 108 262.5t258 97.5q155 0 261 -103t106 -255q0 -63 -20 -117.5t-70 -128.5l-174 -256q-37 -53 -37 -123v-96h-104v92q0 55 12.5 94.5t46.5 90.5l172 254q40 58 55 99t15 89q0 115 -75.5 191.5t-189.5 76.5t-184 -72t-76 -196h-104zM461 76q0 34 24 58 t58 24t58 -24t24 -56q0 -35 -24 -59.5t-58 -24.5t-58 24t-24 58z" />
<glyph unicode="@" horiz-adv-x="1427" d="M158 322v716q0 192 109 306t292 114h307q183 0 293.5 -115t110.5 -305v-1038h-105v121q-33 -42 -55.5 -61t-56.5 -37q-70 -37 -168 -37q-187 0 -289 133q-47 63 -67.5 149.5t-20.5 225.5q0 257 80 370q47 66 123 101.5t170 35.5t163 -34q36 -19 60.5 -40t60.5 -65v182 q0 160 -81.5 245t-235.5 85h-270q-146 0 -232 -86q-47 -47 -65.5 -100t-18.5 -144v-722q0 -105 24.5 -155.5t102.5 -109.5l-72 -71q-54 40 -79 65.5t-45 61.5q-35 63 -35 209zM612 494q0 -220 65.5 -318t211.5 -98q145 0 210.5 98.5t65.5 315.5q0 220 -65 318.5t-211 98.5 t-211.5 -97.5t-65.5 -317.5z" />
<glyph unicode="A" horiz-adv-x="1232" d="M31 0l536 1458h99l536 -1458h-119l-127 354h-680l-126 -354h-119zM311 453h611l-306 858z" />
<glyph unicode="B" horiz-adv-x="1374" d="M225 0v1458h537q189 0 305.5 -104t116.5 -273q0 -159 -111 -264q-41 -36 -117 -67q53 -22 80.5 -37.5t55.5 -40.5q114 -105 114 -279q0 -185 -113.5 -289t-314.5 -104h-553zM336 98h430q152 0 241 80.5t89 218.5q0 137 -89 218t-241 81h-430v-598zM336 795h414 q154 0 238.5 74t84.5 208q0 133 -85.5 208t-237.5 75h-414v-565z" />
<glyph unicode="C" horiz-adv-x="1220" d="M168 729q0 238 8 309q17 152 94 247q15 18 33 36q72 72 167 110.5t200 38.5q121 0 215.5 -45.5t193.5 -136.5l-73 -74q-85 82 -158.5 120t-175.5 38q-133 0 -243.5 -82t-131.5 -211q-18 -106 -18 -350v-61q0 -213 22.5 -307.5t89.5 -161.5q113 -113 281 -113 q102 0 175.5 38t158.5 120l73 -74q-105 -95 -194 -138.5t-213 -43.5q-214 0 -369 149q-37 36 -62 77t-39.5 85.5t-22 114t-9.5 136.5t-2 179z" />
<glyph unicode="D" horiz-adv-x="1388" d="M225 0v1458h490q231 0 364 -133q31 -31 54.5 -69.5t38 -70.5t25 -85t15 -80.5t7 -90.5t2.5 -82.5v-86.5q0 -216 -12 -308q-27 -213 -130 -319q-130 -133 -364 -133h-490zM336 98h352q206 0 313 113q109 118 109 432v107q0 183 -16 301q-15 111 -93 196q-110 113 -313 113 h-352v-1262z" />
<glyph unicode="E" horiz-adv-x="1224" d="M225 0v1458h885v-98h-774v-576h659v-98h-659v-588h774v-98h-885z" />
<glyph unicode="F" horiz-adv-x="1179" d="M225 0v1458h885v-98h-774v-600h659v-98h-659v-662h-111z" />
<glyph unicode="G" horiz-adv-x="1327" d="M168 729v76q0 228 27 331.5t108 184.5q149 149 369 149q116 0 202 -38q60 -25 106.5 -58.5t121.5 -105.5l-74 -74q-91 89 -141 119q-91 59 -213 59q-171 0 -283 -112q-37 -37 -62.5 -86t-31.5 -95q-18 -133 -18 -350v-61q0 -213 22.5 -307.5t89.5 -161.5 q110 -113 275 -113q91 0 170 36.5t135 104.5q88 110 88 289v131h-391v98h501v-237q0 -119 -27.5 -202t-90.5 -150q-75 -82 -173.5 -125t-209.5 -43q-103 0 -198 38.5t-167 110.5q-46 46 -78.5 105.5t-38.5 111.5q-18 147 -18 375z" />
<glyph unicode="H" horiz-adv-x="1431" d="M225 0v1458h111v-674h760v674h110v-1458h-110v686h-760v-686h-111z" />
<glyph unicode="I" horiz-adv-x="561" d="M225 0v1458h111v-1458h-111z" />
<glyph unicode="J" horiz-adv-x="1019" d="M61 113l76 75q58 -58 111 -80t131 -22q157 0 241.5 95t84.5 272v1005h110v-1028q0 -201 -119 -321.5t-317 -120.5q-98 0 -182 35q-38 15 -65.5 33t-70.5 57z" />
<glyph unicode="K" horiz-adv-x="1320" d="M225 0v1458h111v-911l739 911h133l-450 -557l526 -901h-131l-469 817l-348 -422v-395h-111z" />
<glyph unicode="L" horiz-adv-x="1171" d="M225 0v1458h111v-1360h774v-98h-885z" />
<glyph unicode="M" horiz-adv-x="1675" d="M225 0v1458h111l508 -1124l495 1124h111v-1458h-111v1202l-442 -997h-111l-450 997v-1202h-111z" />
<glyph unicode="N" horiz-adv-x="1513" d="M225 0v1458h111l842 -1263v1263h110v-1458h-110l-842 1268v-1268h-111z" />
<glyph unicode="O" horiz-adv-x="1335" d="M168 729q0 227 7 295q17 167 101 268q13 15 27 29q72 72 167 110.5t198 38.5t197.5 -38.5t166.5 -110.5q25 -25 44.5 -52t33.5 -59.5t24.5 -58.5t16.5 -67t9.5 -65t5.5 -73q2 -48 2 -69v-29v-46q0 -54 -1 -73q0 -277 -24 -391t-111 -201q-72 -72 -166.5 -110.5 t-197.5 -38.5t-198 38.5t-167 110.5q-38 38 -63 81t-39.5 87t-21.5 114t-9 134.5t-2 175.5zM279 666q0 -211 22.5 -305.5t89.5 -161.5q113 -113 277 -113q163 0 276 113q28 28 48 59t32.5 74t19.5 73.5t9.5 93t3 95.5t0.5 115v55q0 233 -22 330t-91 166q-112 112 -276 112 q-165 0 -277 -112q-72 -72 -92 -180.5t-20 -350.5v-63z" />
<glyph unicode="P" horiz-adv-x="1292" d="M225 0v1458h535q200 0 320 -115t120 -305t-120 -305t-320 -115h-424v-618h-111zM336 717h412q163 0 252.5 83.5t89.5 237.5t-89.5 238t-252.5 84h-412v-643z" />
<glyph unicode="Q" horiz-adv-x="1333" d="M166 805q0 227 27.5 330.5t109.5 185.5q72 72 167 110.5t198 38.5t197.5 -38.5t166.5 -110.5q46 -46 77.5 -105t39.5 -112q9 -80 18 -375q0 -13 1 -37t1 -37q0 -260 -41 -370q-19 -55 -65 -113l172 -172l-74 -74l-172 172q-50 -36 -78 -51.5t-67 -28.5q-86 -30 -176 -30 q-103 0 -198 38.5t-167 110.5q-46 46 -78.5 105.5t-38.5 111.5q-9 74 -18 375q0 13 -1 38t-1 38zM279 666q0 -211 22.5 -305.5t89.5 -161.5q113 -113 277 -113q59 0 133 23q54 17 114 63l-204 205l73 74l203 -203q29 47 41 86q24 92 27 252l2 143v59q0 210 -19 299 q-22 101 -94 173q-112 112 -276 112q-165 0 -277 -112q-37 -37 -62.5 -86t-31.5 -95q-18 -128 -18 -350v-63z" />
<glyph unicode="R" horiz-adv-x="1345" d="M225 0v1458h555q191 0 304.5 -106.5t113.5 -284.5q0 -157 -88 -262q-47 -55 -104.5 -83t-143.5 -48l352 -674h-129l-348 672h-401v-672h-111zM336 770h430q152 0 236.5 77.5t84.5 217.5t-84.5 217.5t-236.5 77.5h-430v-590z" />
<glyph unicode="S" horiz-adv-x="1202" d="M104 180l78 78q63 -60 101.5 -87.5t89.5 -47.5q90 -37 213 -37q183 0 284 79t101 224q0 132 -80 203q-35 32 -78.5 48.5t-132.5 29.5l-170 26q-184 29 -279.5 124.5t-95.5 250.5q0 186 123 292.5t340 106.5q129 0 215 -34q51 -19 90.5 -44t104.5 -79l-72 -72 q-89 76 -162 105q-80 30 -186 30q-161 0 -252.5 -80t-91.5 -221q0 -127 75 -190q87 -71 218 -90l157 -25q100 -15 157 -36t103 -60q127 -106 127 -285q0 -188 -135 -294.5t-373 -106.5q-147 0 -262 47q-59 25 -101 54.5t-106 90.5z" />
<glyph unicode="T" horiz-adv-x="1103" d="M61 1360v98h981v-98h-436v-1360h-110v1360h-435z" />
<glyph unicode="U" horiz-adv-x="1409" d="M205 473v985h110v-971q0 -181 107.5 -291t282.5 -110t282 110t107 291v971h110v-985q0 -214 -139.5 -349.5t-359.5 -135.5t-360 135.5t-140 349.5z" />
<glyph unicode="V" horiz-adv-x="1093" d="M20 1458h117l410 -1263l409 1263h117l-479 -1458h-94z" />
<glyph unicode="W" horiz-adv-x="1724" d="M41 1458h117l307 -1268l340 1268h115l340 -1268l307 1268h116l-364 -1458h-113l-344 1270l-344 -1270h-112z" />
<glyph unicode="X" horiz-adv-x="1089" d="M37 0l446 748l-417 710h129l348 -612l350 612h127l-418 -710l451 -748h-129l-381 649l-381 -649h-125z" />
<glyph unicode="Y" horiz-adv-x="1011" d="M20 1458h119l371 -737l362 737h119l-430 -854v-604h-110v604z" />
<glyph unicode="Z" horiz-adv-x="1144" d="M129 0v117l768 1243h-737v98h856v-98l-774 -1262h774v-98h-887z" />
<glyph unicode="[" horiz-adv-x="593" d="M199 -152v1762h303v-92h-199v-1577h199v-93h-303z" />
<glyph unicode="\" horiz-adv-x="692" d="M0 1610h109l583 -1762h-108z" />
<glyph unicode="]" horiz-adv-x="593" d="M92 -66h205v1590h-205v86h303v-1762h-303v86z" />
<glyph unicode="^" d="M156 864l323 606h94l324 -606h-104l-267 496l-266 -496h-104z" />
<glyph unicode="_" d="M0 -250h1053v-78h-1053v78z" />
<glyph unicode="`" horiz-adv-x="1024" d="M272 1509h138l198 -301h-119z" />
<glyph unicode="a" horiz-adv-x="1073" d="M115 272q0 132 91.5 207.5t252.5 75.5h319v111q0 126 -68.5 183.5t-217.5 57.5q-103 0 -168 -33q-49 -26 -97 -92l-75 66q36 45 61 67t61 41q85 43 222 43q387 0 387 -323v-676h-105v98q-69 -64 -116 -82q-69 -28 -189 -28q-358 0 -358 284zM219 272q0 -101 64 -146.5 t204 -45.5q155 0 223 62t68 202v127h-307q-252 0 -252 -199z" />
<glyph unicode="b" horiz-adv-x="1105" d="M199 0v1458h104v-598q37 45 61.5 66.5t57.5 38.5q69 34 166 34q191 0 284 -125.5t93 -381.5q0 -504 -375 -504q-99 0 -168 35q-32 15 -56.5 37t-62.5 67v-127h-104zM303 494q0 -216 66.5 -315t212.5 -99q145 0 211.5 99t66.5 313q0 217 -66 316t-212 99q-145 0 -212 -99 t-67 -314z" />
<glyph unicode="c" horiz-adv-x="1009" d="M141 494q0 236 117.5 370.5t323.5 134.5q105 0 172 -34t147 -117l-72 -66q-61 66 -115 95.5t-134 29.5q-177 0 -267 -131q-37 -52 -52 -117t-15 -167q0 -100 15.5 -165.5t51.5 -115.5q91 -131 265 -131q81 0 135 29t116 96l72 -66q-78 -83 -146 -117t-173 -34 q-206 0 -323.5 135t-117.5 371z" />
<glyph unicode="d" horiz-adv-x="1105" d="M141 494q0 505 375 505q101 0 168 -34q33 -18 58 -39.5t61 -65.5v598h104v-1458h-104v127q-60 -73 -119 -104q-72 -35 -168 -35q-189 0 -282 125.5t-93 380.5zM246 494q0 -216 66 -315t212 -99q145 0 212 99t67 313q0 217 -66.5 316t-212.5 99q-145 0 -211.5 -99 t-66.5 -314z" />
<glyph unicode="e" horiz-adv-x="1071" d="M141 500q0 233 105.5 366t290.5 133q184 0 289.5 -128.5t105.5 -352.5v-47h-686q3 -82 10 -125t25 -84q73 -180 288 -180q79 0 140 24q32 13 58 32t73 63l78 -62q-53 -52 -87 -76t-79 -43q-74 -32 -187 -32q-209 0 -316.5 129.5t-107.5 382.5zM246 555h581q-5 99 -18 141 q-29 99 -101 155t-171 56q-86 0 -154 -44.5t-102 -121.5q-30 -66 -35 -186z" />
<glyph unicode="f" horiz-adv-x="622" d="M94 909v78h135v213q0 120 64 189t174 69h90v-92h-72q-151 0 -151 -164v-215h223v-78h-223v-909h-105v909h-135z" />
<glyph unicode="g" horiz-adv-x="1105" d="M141 494q0 505 375 505q101 0 168 -34q33 -18 58 -39.5t61 -65.5v127h104v-1042q0 -197 -110.5 -312.5t-300.5 -115.5q-92 0 -156 24q-39 15 -72.5 37t-89.5 70l70 69q44 -40 70.5 -58t58.5 -30q50 -20 123 -20q145 0 224 89.5t79 252.5v176q-60 -73 -119 -104 q-72 -35 -168 -35q-189 0 -282 125.5t-93 380.5zM246 494q0 -216 66 -315t212 -99q145 0 212 99t67 313q0 217 -66.5 316t-212.5 99q-145 0 -211.5 -99t-66.5 -314z" />
<glyph unicode="h" horiz-adv-x="1144" d="M199 0v1458h104v-588q63 66 123 95q69 34 170 34q167 0 264.5 -99t97.5 -269v-631h-104v612q0 143 -70 219t-202 76t-205.5 -77.5t-73.5 -217.5v-612h-104z" />
<glyph unicode="i" horiz-adv-x="501" d="M174 1393q0 32 22.5 54.5t53.5 22.5t54.5 -22t23.5 -51q0 -33 -22.5 -56.5t-53.5 -23.5q-32 0 -55 22.5t-23 53.5zM199 0v987h104v-987h-104z" />
<glyph unicode="j" horiz-adv-x="501" d="M-25 -379h72q82 0 117 38.5t35 127.5v1200h104v-1202q0 -122 -61.5 -189t-175.5 -67h-91v92zM174 1393q0 32 22.5 54.5t53.5 22.5t54.5 -22t23.5 -51q0 -33 -22.5 -56.5t-53.5 -23.5q-32 0 -55 22.5t-23 53.5z" />
<glyph unicode="k" horiz-adv-x="1079" d="M199 0v1458h104v-1028l490 557h133l-326 -369l397 -618h-129l-340 543l-225 -260v-283h-104z" />
<glyph unicode="l" horiz-adv-x="501" d="M199 0v1458h104v-1458h-104z" />
<glyph unicode="m" horiz-adv-x="1798" d="M199 0v987h104v-117q39 41 63.5 59.5t61.5 35.5q75 34 168 34q154 0 246 -86q34 -32 71 -94q48 69 88 99q103 81 248 81q168 0 266.5 -99t98.5 -269v-631h-105v612q0 143 -70 219t-200 76q-129 0 -205 -74.5t-76 -201.5v-631h-104v612q0 143 -70 219t-202 76 t-205.5 -77.5t-73.5 -217.5v-612h-104z" />
<glyph unicode="n" horiz-adv-x="1144" d="M199 0v987h104v-117q63 66 123 95q69 34 170 34q167 0 264.5 -99t97.5 -269v-631h-104v612q0 143 -70 219t-202 76t-205.5 -77.5t-73.5 -217.5v-612h-104z" />
<glyph unicode="o" horiz-adv-x="1077" d="M141 494q0 143 29.5 238t93.5 159q108 108 275 108q190 0 293.5 -130t103.5 -369q0 -147 -29 -242.5t-94 -161.5q-108 -108 -274 -108q-167 0 -275 108q-64 64 -93.5 159.5t-29.5 238.5zM246 494q0 -132 19.5 -205.5t68.5 -124.5q81 -84 205 -84q123 0 204 84 q47 50 67.5 124t20.5 201q0 134 -19.5 208.5t-68.5 125.5q-81 84 -204 84q-124 0 -205 -84q-48 -50 -68 -124.5t-20 -204.5z" />
<glyph unicode="p" horiz-adv-x="1105" d="M199 -471v1458h104v-127q61 77 121.5 108t163.5 31q191 0 284 -125.5t93 -381.5q0 -504 -375 -504q-107 0 -168 32t-119 107v-598h-104zM303 494q0 -216 66.5 -315t212.5 -99q145 0 211.5 99t66.5 313q0 217 -66 316t-212 99q-145 0 -212 -99t-67 -314z" />
<glyph unicode="q" horiz-adv-x="1105" d="M141 494q0 505 375 505q101 0 168 -34q33 -18 58 -39.5t61 -65.5v127h104v-1458h-104v598q-60 -73 -119 -104q-72 -35 -168 -35q-189 0 -282 125.5t-93 380.5zM246 494q0 -216 66 -315t212 -99q145 0 212 99t67 313q0 217 -66.5 316t-212.5 99q-145 0 -211.5 -99 t-66.5 -314z" />
<glyph unicode="r" horiz-adv-x="837" d="M199 0v987h104v-131q34 48 62 68q93 75 231 75q72 0 131 -24q43 -16 102 -70l-75 -76q-48 45 -86 61.5t-95 16.5q-121 0 -195.5 -82.5t-74.5 -216.5v-608h-104z" />
<glyph unicode="s" horiz-adv-x="1011" d="M102 129l72 72q39 -36 63 -52.5t58 -31.5q87 -37 207 -37q143 0 218 51.5t75 149.5q0 150 -189 165l-164 15q-297 24 -297 256q0 129 96 205.5t259 76.5q106 0 207 -32q41 -14 68.5 -28t70.5 -44l-70 -70q-61 42 -117 60q-77 24 -159 24q-121 0 -186.5 -50t-65.5 -142 q0 -75 48.5 -115t152.5 -49l159 -14q151 -13 220 -74t69 -180q0 -140 -108 -218.5t-300 -78.5q-127 0 -233 41q-45 19 -75 38.5t-79 61.5z" />
<glyph unicode="t" horiz-adv-x="665" d="M88 909v78h135v316h105v-316h223v-78h-223v-653q0 -164 151 -164h72v-92h-90q-110 0 -174 69t-64 189v651h-135z" />
<glyph unicode="u" horiz-adv-x="1144" d="M186 356v631h105v-612q0 -143 70 -219t202 -76t205.5 77.5t73.5 217.5v612h104v-987h-104v117q-38 -39 -63 -57.5t-62 -36.5q-69 -35 -168 -35q-167 0 -265 99t-98 269z" />
<glyph unicode="v" horiz-adv-x="880" d="M29 987h114l297 -864l297 864h115l-360 -987h-103z" />
<glyph unicode="w" horiz-adv-x="1458" d="M29 987h114l252 -864l283 864h102l283 -864l252 864h115l-316 -987h-106l-279 823l-278 -823h-107z" />
<glyph unicode="x" horiz-adv-x="942" d="M82 0l334 504l-320 483h127l250 -397l246 397h127l-320 -483l334 -504h-127l-260 416l-264 -416h-127z" />
<glyph unicode="y" horiz-adv-x="880" d="M29 987h114l297 -864l297 864h115l-459 -1255q-18 -46 -32 -70.5t-35 -44.5q-69 -63 -187 -63h-49v92h39q77 0 114 28t66 107l80 219z" />
<glyph unicode="z" horiz-adv-x="925" d="M111 0v98l594 797h-562v92h672v-98l-596 -797h596v-92h-704z" />
<glyph unicode="{" horiz-adv-x="647" d="M102 684v90h37q58 0 91.5 43.5t33.5 118.5v424q0 81 11.5 123t41.5 71q31 31 76.5 43.5t122.5 12.5h29v-92h-27q-96 0 -122.5 -28.5t-26.5 -131.5v-424q0 -78 -27 -122.5t-98 -82.5q71 -38 98 -82.5t27 -122.5v-424q0 -103 26 -131t123 -28h27v-93h-29q-77 0 -122.5 12.5 t-76.5 43.5q-30 29 -41.5 71t-11.5 123v424q0 75 -33.5 118.5t-91.5 43.5h-37z" />
<glyph unicode="|" horiz-adv-x="649" d="M272 -152v1762h105v-1762h-105z" />
<glyph unicode="}" horiz-adv-x="647" d="M102 -59h27q97 0 123.5 28t26.5 131v424q0 78 27 122.5t97 82.5q-70 38 -97 82.5t-27 122.5v424q0 103 -26.5 131.5t-123.5 28.5h-27v92h29q146 0 199 -52.5t53 -197.5v-424q0 -75 33.5 -118.5t91.5 -43.5h37v-90h-37q-58 0 -91.5 -43.5t-33.5 -118.5v-424 q0 -145 -53 -197.5t-199 -52.5h-29v93z" />
<glyph unicode="~" d="M109 522q56 55 83.5 76.5t59.5 34.5q37 16 88 16q59 0 225 -67q63 -26 91.5 -34.5t58.5 -8.5q44 0 76 17.5t90 74.5l63 -64q-55 -54 -83 -75.5t-60 -34.5q-39 -17 -88 -17q-45 0 -83.5 9.5t-105.5 42.5q-40 20 -61.5 30t-56.5 19.5t-68 9.5q-44 0 -76 -17.5t-90 -74.5z " />
<glyph unicode="&#xa3;" horiz-adv-x="1099" d="M102 700v78h131v250q0 201 119.5 321.5t317.5 120.5q101 0 182 -34q38 -15 64.5 -33t70.5 -57l-76 -76q-60 58 -112.5 80t-130.5 22q-156 0 -240 -94.5t-84 -271.5v-228h324v-78h-324v-602h643v-98h-754v700h-131z" />
<glyph unicode="&#xa9;" horiz-adv-x="1830" d="M174 729q0 151 58.5 288.5t157.5 236.5t236.5 157.5t288.5 58.5q148 0 285 -59t237 -157t160 -232t60 -279q0 -156 -58 -296t-156.5 -240.5t-236.5 -159.5t-291 -59q-151 0 -288.5 58.5t-236.5 157.5t-157.5 236.5t-58.5 288.5zM272 729q0 -130 51.5 -250.5t138 -208 t205.5 -140t248 -52.5q126 0 245 52t206.5 138.5t140 204.5t52.5 244q0 135 -51 258t-137 211.5t-205.5 141t-250.5 52.5q-129 0 -248 -52.5t-205.5 -140t-138 -208t-51.5 -250.5zM561 729q0 196 98 310t267 114q69 0 131 -20q33 -12 60.5 -30t74.5 -59l-62 -61 q-60 51 -101.5 68.5t-102.5 17.5q-273 0 -273 -350q0 -160 70.5 -244t204.5 -84q61 0 102 17t100 67l62 -61q-44 -38 -70 -55t-59 -29q-59 -23 -137 -23q-170 0 -267.5 112.5t-97.5 309.5z" />
<glyph unicode="&#xab;" horiz-adv-x="1079" d="M86 543l401 401v-135l-266 -266l266 -267v-135zM510 543l401 401v-135l-266 -266l266 -267v-135z" />
<glyph unicode="&#xad;" horiz-adv-x="872" d="M168 492v96h537v-96h-537z" />
<glyph unicode="&#xae;" horiz-adv-x="897" d="M63 1087q0 160 113 273t273 113q157 0 271 -112.5t114 -266.5q0 -165 -111.5 -278.5t-273.5 -113.5q-160 0 -273 112.5t-113 272.5zM113 1087q0 -139 99.5 -239t236.5 -100q135 0 235 99t100 234q0 143 -98 244.5t-237 101.5q-136 0 -236 -101t-100 -239zM328 874v426 h137q55 0 93 -36t38 -90q0 -42 -27 -73t-69 -44l106 -183h-55l-105 179h-71v-179h-47zM375 1094h84q38 0 64 23.5t26 58.5t-26 58t-64 23h-84v-163z" />
<glyph unicode="&#xbb;" horiz-adv-x="1079" d="M168 141v135l266 267l-266 266v135l401 -401zM592 141v135l266 267l-266 266v135l401 -401z" />
<glyph unicode="&#x192;" horiz-adv-x="806" d="M61 700v78h238l74 422q22 120 97 189t185 69h90v-92h-88q-74 0 -120.5 -42.5t-59.5 -121.5l-74 -424h224v-78h-238l-207 -1171h-104l207 1171h-224z" />
<glyph unicode="&#x401;" horiz-adv-x="1224" d="M225 0v1458h885v-98h-774v-576h659v-98h-659v-588h774v-98h-885zM354 1694q0 32 22.5 55t53.5 23t54.5 -22.5t23.5 -51.5q0 -33 -22.5 -56.5t-53.5 -23.5q-32 0 -55 22.5t-23 53.5zM778 1694q0 32 22.5 55t53.5 23t54.5 -22.5t23.5 -51.5q0 -33 -22.5 -56.5t-53.5 -23.5 q-32 0 -55 22.5t-23 53.5z" />
<glyph unicode="&#x402;" horiz-adv-x="1521" d="M51 1360v98h981v-98h-497v-510h395q80 0 149 -21t124.5 -63t87.5 -114.5t32 -168.5v-501q0 -201 -119 -322t-317 -121q-98 0 -182 35q-38 15 -65.5 33t-70.5 57l76 76q58 -58 111 -80t131 -22q157 0 241 94.5t84 271.5v465q0 66 -18 117t-46.5 81.5t-67 50.5t-75 27 t-75.5 7h-395v-752h-111v1360h-373z" />
<glyph unicode="&#x403;" horiz-adv-x="1155" d="M242 0v1458h864v-98h-754v-1360h-110zM571 1597l199 301h137l-217 -301h-119z" />
<glyph unicode="&#x404;" horiz-adv-x="1220" d="M170 729q0 238 8 309q17 152 94 247q15 18 33 36q72 72 167 110.5t200 38.5q121 0 215.5 -45.5t193.5 -136.5l-73 -74q-85 82 -158.5 120t-175.5 38q-133 0 -243.5 -82t-131.5 -211q-16 -111 -18 -295h604v-98h-604q0 -10 -0.5 -54t0 -59.5t1.5 -56t4.5 -60t8.5 -55 t13.5 -57.5t20 -50.5t28 -51.5t36.5 -43q113 -113 281 -113q102 0 175.5 38t158.5 120l73 -74q-105 -95 -194 -138.5t-213 -43.5q-214 0 -369 149q-37 36 -62 77t-39.5 85.5t-22 114t-9.5 136.5t-2 179z" />
<glyph unicode="&#x405;" horiz-adv-x="1202" d="M104 180l78 78q63 -60 101.5 -87.5t89.5 -47.5q90 -37 213 -37q183 0 284 79t101 224q0 132 -80 203q-35 32 -78.5 48.5t-132.5 29.5l-170 26q-184 29 -279.5 124.5t-95.5 250.5q0 186 123 292.5t340 106.5q129 0 215 -34q51 -19 90.5 -44t104.5 -79l-72 -72 q-89 76 -162 105q-80 30 -186 30q-161 0 -252.5 -80t-91.5 -221q0 -127 75 -190q87 -71 218 -90l157 -25q100 -15 157 -36t103 -60q127 -106 127 -285q0 -188 -135 -294.5t-373 -106.5q-147 0 -262 47q-59 25 -101 54.5t-106 90.5z" />
<glyph unicode="&#x406;" horiz-adv-x="561" d="M225 0v1458h111v-1458h-111z" />
<glyph unicode="&#x407;" horiz-adv-x="561" d="M-6 1694q0 32 22.5 55t53.5 23t54 -22.5t23 -51.5q0 -34 -22 -57t-53 -23q-32 0 -55 22.5t-23 53.5zM225 0v1458h111v-1458h-111zM418 1694q0 32 22.5 55t53.5 23t54 -22.5t23 -51.5q0 -34 -22 -57t-53 -23q-32 0 -55 22.5t-23 53.5z" />
<glyph unicode="&#x408;" horiz-adv-x="1019" d="M61 113l76 75q58 -58 111 -80t131 -22q157 0 241.5 95t84.5 272v1005h110v-1028q0 -201 -119 -321.5t-317 -120.5q-98 0 -182 35q-38 15 -65.5 33t-70.5 57z" />
<glyph unicode="&#x409;" horiz-adv-x="2162" d="M12 0v98h58q63 0 107.5 14t86 54.5t67.5 112t43.5 188t22.5 281.5l23 710h786v-618h428q200 0 320.5 -115t120.5 -305t-120.5 -305t-320.5 -115h-538v1360h-568l-22 -670q-8 -256 -55.5 -408t-134 -217t-224.5 -65h-80zM1206 98h416q163 0 252.5 84t89.5 238t-89.5 237.5 t-252.5 83.5h-416v-643z" />
<glyph unicode="&#x40a;" horiz-adv-x="2162" d="M225 0v1458h111v-618h760v618h110v-618h428q200 0 320.5 -115t120.5 -305t-120.5 -305t-320.5 -115h-538v741h-760v-741h-111zM1206 98h416q163 0 252.5 84t89.5 238t-89.5 237.5t-252.5 83.5h-416v-643z" />
<glyph unicode="&#x40b;" horiz-adv-x="1521" d="M51 1360v98h981v-98h-497v-535q3 1 33.5 7.5t48 10l52.5 10.5t63 11t63 8.5t69 6.5t66 2q80 0 149 -21t124.5 -63t87.5 -114.5t32 -168.5v-514h-111v500q0 81 -26.5 139.5t-71 88t-89.5 42t-95 12.5q-69 0 -194 -19t-201 -36v-727h-111v1360h-373z" />
<glyph unicode="&#x40c;" horiz-adv-x="1320" d="M225 0v1458h111v-911l739 911h133l-450 -557l526 -901h-131l-469 817l-348 -422v-395h-111zM571 1597l199 301h137l-217 -301h-119z" />
<glyph unicode="&#x40e;" horiz-adv-x="1093" d="M25 1458h118l424 -919l383 919h119l-530 -1237q-45 -108 -111 -164.5t-164 -56.5h-110v98h86q80 0 125 37.5t81 126.5l64 152zM221 1812h96q44 -163 232 -163q183 0 227 163h96q-58 -256 -325 -256q-268 0 -326 256z" />
<glyph unicode="&#x40f;" horiz-adv-x="1431" d="M225 0v1458h111v-1360h760v1360h110v-1458h-434v-389h-110v389h-437z" />
<glyph unicode="&#x410;" horiz-adv-x="1232" d="M31 0l536 1458h99l536 -1458h-119l-127 354h-680l-126 -354h-119zM311 453h611l-306 858z" />
<glyph unicode="&#x411;" horiz-adv-x="1345" d="M225 0v1458h889v-98h-778v-520h428q200 0 320 -115t120 -305t-120 -305t-320 -115h-539zM336 98h416q163 0 252.5 84t89.5 238t-89.5 237.5t-252.5 83.5h-416v-643z" />
<glyph unicode="&#x412;" horiz-adv-x="1374" d="M225 0v1458h537q189 0 305.5 -104t116.5 -273q0 -159 -111 -264q-41 -36 -117 -67q53 -22 80.5 -37.5t55.5 -40.5q114 -105 114 -279q0 -185 -113.5 -289t-314.5 -104h-553zM336 98h430q152 0 241 80.5t89 218.5q0 137 -89 218t-241 81h-430v-598zM336 795h414 q154 0 238.5 74t84.5 208q0 133 -85.5 208t-237.5 75h-414v-565z" />
<glyph unicode="&#x413;" horiz-adv-x="1155" d="M242 0v1458h864v-98h-754v-1360h-110z" />
<glyph unicode="&#x414;" horiz-adv-x="1431" d="M70 98h143q75 173 113 321.5t55.5 347t17.5 507.5v184h764v-1360h174v-487h-110v389h-1047v-389h-110v487zM334 98h719v1262h-543v-205q0 -178 -7 -309t-17.5 -223.5t-35.5 -186.5t-48 -158.5t-68 -179.5z" />
<glyph unicode="&#x415;" horiz-adv-x="1224" d="M225 0v1458h885v-98h-774v-576h659v-98h-659v-588h774v-98h-885z" />
<glyph unicode="&#x416;" horiz-adv-x="1888" d="M25 0l516 877l-443 581h133l658 -891v891h110v-891l658 891h133l-442 -581l516 -877h-131l-455 784l-279 -368v-416h-110v416l-279 368l-454 -784h-131z" />
<glyph unicode="&#x417;" horiz-adv-x="1202" d="M96 180l78 78q102 -97 184 -134.5t213 -37.5q153 0 253 84t100 227q0 150 -83.5 224.5t-240.5 74.5h-162v99h168q140 0 216.5 75.5t76.5 216.5q0 136 -88 210.5t-238 74.5q-108 0 -193 -32t-167 -103l-66 72q102 85 199.5 123t226.5 38q192 0 314.5 -104t122.5 -276 q0 -246 -219 -338q243 -82 243 -359q0 -122 -63 -215t-170.5 -141.5t-241.5 -48.5q-153 0 -254.5 42t-208.5 150z" />
<glyph unicode="&#x418;" horiz-adv-x="1474" d="M225 0v1458h111v-1263l803 1263h110v-1458h-110v1268l-803 -1268h-111z" />
<glyph unicode="&#x419;" horiz-adv-x="1474" d="M225 0v1458h111v-1263l803 1263h110v-1458h-110v1268l-803 -1268h-111zM412 1812h96q44 -163 231 -163q184 0 228 163h96q-58 -256 -326 -256q-267 0 -325 256z" />
<glyph unicode="&#x41a;" horiz-adv-x="1320" d="M225 0v1458h111v-911l739 911h133l-450 -557l526 -901h-131l-469 817l-348 -422v-395h-111z" />
<glyph unicode="&#x41b;" horiz-adv-x="1431" d="M12 0v98h58q63 0 107.5 14t86 54.5t67.5 112t43.5 188t22.5 281.5l23 710h786v-1458h-110v1360h-568l-22 -670q-8 -256 -55.5 -408t-134 -217t-224.5 -65h-80z" />
<glyph unicode="&#x41c;" horiz-adv-x="1675" d="M225 0v1458h111l508 -1124l495 1124h111v-1458h-111v1202l-442 -997h-111l-450 997v-1202h-111z" />
<glyph unicode="&#x41d;" horiz-adv-x="1431" d="M225 0v1458h111v-674h760v674h110v-1458h-110v686h-760v-686h-111z" />
<glyph unicode="&#x41e;" horiz-adv-x="1335" d="M168 729q0 227 7 295q17 167 101 268q13 15 27 29q72 72 167 110.5t198 38.5t197.5 -38.5t166.5 -110.5q25 -25 44.5 -52t33.5 -59.5t24.5 -58.5t16.5 -67t9.5 -65t5 -72.5t2 -69.5t0 -75.5t-0.5 -72.5q0 -277 -24 -391t-111 -201q-72 -72 -166.5 -110.5t-197.5 -38.5 t-198 38.5t-167 110.5q-38 38 -63 81t-39.5 87t-21.5 114t-9 134.5t-2 175.5zM279 666q0 -211 22.5 -305.5t89.5 -161.5q113 -113 277 -113q163 0 276 113q28 28 48 59t32.5 74t19.5 73.5t9.5 93t3 95.5t0.5 115v55q0 233 -22 330t-91 166q-112 112 -276 112 q-165 0 -277 -112q-72 -72 -92 -180.5t-20 -350.5v-63z" />
<glyph unicode="&#x41f;" horiz-adv-x="1431" d="M225 0v1458h981v-1458h-110v1360h-760v-1360h-111z" />
<glyph unicode="&#x420;" horiz-adv-x="1292" d="M225 0v1458h535q200 0 320 -115t120 -305t-120 -305t-320 -115h-424v-618h-111zM336 717h412q163 0 252.5 83.5t89.5 237.5t-89.5 238t-252.5 84h-412v-643z" />
<glyph unicode="&#x421;" horiz-adv-x="1220" d="M168 729q0 238 8 309q17 152 94 247q15 18 33 36q72 72 167 110.5t200 38.5q121 0 215.5 -45.5t193.5 -136.5l-73 -74q-85 82 -158.5 120t-175.5 38q-133 0 -243.5 -82t-131.5 -211q-18 -106 -18 -350v-61q0 -213 22.5 -307.5t89.5 -161.5q113 -113 281 -113 q102 0 175.5 38t158.5 120l73 -74q-105 -95 -194 -138.5t-213 -43.5q-214 0 -369 149q-37 36 -62 77t-39.5 85.5t-22 114t-9.5 136.5t-2 179z" />
<glyph unicode="&#x422;" horiz-adv-x="1103" d="M61 1360v98h981v-98h-436v-1360h-110v1360h-435z" />
<glyph unicode="&#x423;" horiz-adv-x="1093" d="M25 1458h118l424 -919l383 919h119l-530 -1237q-45 -108 -111 -164.5t-164 -56.5h-110v98h86q79 0 123.5 37t82.5 127l64 152z" />
<glyph unicode="&#x424;" horiz-adv-x="1478" d="M119 760q0 270 152 424.5t413 154.5v125h111v-125q261 0 413 -154.5t152 -424.5t-151 -425t-414 -155v-186h-111v186q-263 0 -414 155t-151 425zM229 758q0 -218 118.5 -348.5t336.5 -130.5v962q-113 0 -201 -36t-143 -101t-83 -152.5t-28 -193.5zM795 279 q218 0 336 130.5t118 348.5q0 106 -28 193.5t-83 152.5t-142.5 101t-200.5 36v-962z" />
<glyph unicode="&#x425;" horiz-adv-x="1089" d="M37 0l446 748l-417 710h129l348 -612l350 612h127l-418 -710l451 -748h-129l-381 649l-381 -649h-125z" />
<glyph unicode="&#x426;" horiz-adv-x="1474" d="M225 0v1458h111v-1360h760v1360h110v-1360h174v-487h-110v389h-1045z" />
<glyph unicode="&#x427;" horiz-adv-x="1318" d="M164 944v514h110v-500q0 -66 20.5 -117.5t52 -82.5t73.5 -51t80.5 -27.5t77.5 -7.5h405v786h111v-1458h-111v573h-405q-81 0 -152.5 21.5t-131.5 64.5t-95 116.5t-35 168.5z" />
<glyph unicode="&#x428;" horiz-adv-x="2048" d="M225 0v1458h111v-1360h633v1360h110v-1360h633v1360h111v-1458h-1598z" />
<glyph unicode="&#x429;" horiz-adv-x="2091" d="M225 0v1458h111v-1360h633v1360h110v-1360h633v1360h111v-1360h174v-487h-111v389h-1661z" />
<glyph unicode="&#x42a;" horiz-adv-x="1552" d="M61 1360v98h535v-618h428q200 0 320 -115t120 -305t-120 -305t-320 -115h-539v1360h-424zM596 98h416q163 0 252.5 84t89.5 238t-89.5 237.5t-252.5 83.5h-416v-643z" />
<glyph unicode="&#x42b;" horiz-adv-x="1748" d="M225 0v1458h111v-618h428q200 0 320 -115t120 -305t-120 -305t-320 -115h-539zM336 98h416q163 0 252.5 84t89.5 238t-89.5 237.5t-252.5 83.5h-416v-643zM1413 0v1458h111v-1458h-111z" />
<glyph unicode="&#x42c;" horiz-adv-x="1292" d="M225 0v1458h111v-618h428q200 0 320 -115t120 -305t-120 -305t-320 -115h-539zM336 98h416q163 0 252.5 84t89.5 238t-89.5 237.5t-252.5 83.5h-416v-643z" />
<glyph unicode="&#x42d;" horiz-adv-x="1220" d="M139 170l74 74q85 -82 158.5 -120t175.5 -38q167 0 280 113q18 18 33.5 40t26.5 42t19.5 48.5t14 47.5t9.5 52t6 50.5t3 54t1 51v52.5v49h-604v98h604q-2 184 -18 295q-21 129 -131.5 211t-243.5 82q-102 0 -175.5 -38t-158.5 -120l-74 74q99 91 194 136.5t216 45.5 q104 0 199 -38.5t167 -110.5q34 -34 57.5 -68t38.5 -79t23.5 -78.5t12 -98t4 -103.5t0.5 -126v-39q0 -112 -2 -179.5t-9.5 -136.5t-22.5 -113.5t-39.5 -85.5t-62.5 -77q-155 -149 -368 -149q-124 0 -213.5 43.5t-194.5 138.5z" />
<glyph unicode="&#x42e;" horiz-adv-x="1843" d="M225 0v1458h111v-674h340q0 58 0.5 86.5t2 77.5t5 76t9.5 66.5t16 65t24 57t33.5 57.5t44.5 51q72 72 167 110.5t198 38.5t197.5 -38.5t166.5 -110.5q25 -25 44.5 -52t33.5 -59.5t24.5 -58.5t16.5 -67t9.5 -65t5 -72.5t2 -69.5t0 -75.5t-0.5 -72.5q0 -277 -24 -391 t-111 -201q-72 -72 -166.5 -110.5t-197.5 -38.5t-198 38.5t-167 110.5q-86 86 -110.5 199t-24.5 350h-340v-686h-111zM786 666q0 -210 23 -305t90 -162q113 -113 277 -113q163 0 276 113q28 28 48 59t32.5 74t19.5 73.5t9.5 93t3 95.5t0.5 115v55q0 233 -22 330t-91 166 q-112 112 -276 112q-165 0 -277 -112q-72 -72 -92.5 -181t-20.5 -350v-63z" />
<glyph unicode="&#x42f;" horiz-adv-x="1345" d="M131 0l348 629q-155 29 -244.5 138t-89.5 271q0 190 120.5 305t320.5 115h534v-1458h-110v618h-410l-340 -618h-129zM256 1038q0 -154 89.5 -237.5t252.5 -83.5h412v643h-412q-163 0 -252.5 -84t-89.5 -238z" />
<glyph unicode="&#x430;" horiz-adv-x="1073" d="M115 272q0 132 91.5 207.5t252.5 75.5h319v111q0 126 -68.5 183.5t-217.5 57.5q-103 0 -168 -33q-49 -26 -97 -92l-75 66q36 45 61 67t61 41q85 43 222 43q387 0 387 -323v-676h-105v98q-69 -64 -116 -82q-69 -28 -189 -28q-358 0 -358 284zM219 272q0 -101 64 -146.5 t204 -45.5q155 0 223 62t68 202v127h-307q-252 0 -252 -199z" />
<glyph unicode="&#x431;" horiz-adv-x="1077" d="M153.5 552q-0.5 36 0 98.5t0.5 80.5q0 241 25 371t110 217q44 44 101.5 72.5t123 41t120 18t125.5 9.5t105 8v-100q-31 -4 -116.5 -9.5t-146 -11.5t-132 -30t-111.5 -64q-34 -34 -57.5 -79.5t-34.5 -102.5t-15.5 -92t-6.5 -95t-2 -65h6q38 75 128 121.5t175 46.5 q187 0 286 -127.5t99 -365.5q0 -148 -28.5 -242t-92.5 -158q-103 -106 -270 -106q-146 0 -243 81t-128 222q-8 33 -12.5 75.5t-6 96t-2 89.5zM258 487q0 -130 19.5 -202.5t66.5 -122.5q82 -82 201 -82q57 0 110 22t90 60q47 47 66.5 120t19.5 201q0 135 -18.5 208t-67.5 122 q-37 38 -90 60t-110 22q-119 0 -201 -82q-46 -48 -66 -122.5t-20 -203.5z" />
<glyph unicode="&#x432;" horiz-adv-x="1095" d="M199 0v987h448q128 0 206.5 -69.5t78.5 -184.5q0 -82 -44.5 -139t-123.5 -82q85 -27 134.5 -90t49.5 -154q0 -125 -77.5 -196.5t-213.5 -71.5h-458zM303 88h332q98 0 153.5 50.5t55.5 137.5t-56 139t-153 52h-332v-379zM303 555h322q98 0 150 45t52 127q0 83 -52.5 127.5 t-149.5 44.5h-322v-344z" />
<glyph unicode="&#x433;" horiz-adv-x="841" d="M207 0v987h614v-88h-510v-899h-104z" />
<glyph unicode="&#x434;" horiz-adv-x="1144" d="M57 88h131q35 72 56 124.5t43.5 133.5t32.5 183.5t10 232.5v225h588v-899h153v-416h-104v328h-805v-328h-105v416zM311 88h502v811h-379v-205q0 -202 -30.5 -336.5t-92.5 -269.5z" />
<glyph unicode="&#x435;" horiz-adv-x="1071" d="M141 500q0 233 105.5 366t290.5 133q184 0 289.5 -128.5t105.5 -352.5v-47h-686q3 -82 10 -125t25 -84q73 -180 288 -180q79 0 140 24q32 13 58 32t73 63l78 -62q-53 -52 -87 -76t-79 -43q-74 -32 -187 -32q-209 0 -316.5 129.5t-107.5 382.5zM246 555h581q-5 99 -18 141 q-29 99 -101 155t-171 56q-86 0 -154 -44.5t-102 -121.5q-30 -66 -35 -186z" />
<glyph unicode="&#x436;" horiz-adv-x="1460" d="M49 0l371 582l-324 405h133l449 -577v577h104v-577l449 577h133l-324 -405l371 -582h-131l-307 500l-191 -238v-262h-104v262l-191 238l-307 -500h-131z" />
<glyph unicode="&#x437;" horiz-adv-x="976" d="M76 131l71 72q70 -68 136.5 -94.5t167.5 -26.5q67 0 130 22t105.5 67t42.5 103q0 91 -62 140t-165 49h-142v88h146q92 0 148.5 47t56.5 133q0 84 -66 131t-178 47q-157 0 -285 -88l-61 74q149 104 346 104q152 0 249 -71t97 -195q0 -79 -43 -139t-123 -84q84 -23 133 -87 t49 -151q0 -128 -108.5 -205t-263.5 -77q-121 0 -208 31.5t-173 109.5z" />
<glyph unicode="&#x438;" horiz-adv-x="1173" d="M199 0v987h104v-827l567 827h105v-987h-105v827l-567 -827h-104z" />
<glyph unicode="&#x439;" horiz-adv-x="1173" d="M199 0v987h104v-827l567 827h105v-987h-105v827l-567 -827h-104zM260 1438h96q45 -164 232 -164q182 0 227 164h96q-58 -256 -325 -256q-268 0 -326 256z" />
<glyph unicode="&#x43a;" horiz-adv-x="1073" d="M203 0v987h104v-577l510 577h133l-356 -401l414 -586h-131l-353 508l-217 -246v-262h-104z" />
<glyph unicode="&#x43b;" horiz-adv-x="1144" d="M53 0v88h51q26 0 47.5 4.5t48 16.5t46.5 38t38.5 64.5t29 100t12.5 141.5l14 534h606v-987h-104v899h-400l-14 -485q-11 -414 -309 -414h-66z" />
<glyph unicode="&#x43c;" horiz-adv-x="1327" d="M199 0v987h104l365 -743l356 743h104v-987h-104v774l-309 -635h-99l-313 635v-774h-104z" />
<glyph unicode="&#x43d;" horiz-adv-x="1144" d="M199 0v987h104v-432h539v432h104v-987h-104v467h-539v-467h-104z" />
<glyph unicode="&#x43e;" horiz-adv-x="1077" d="M141 494q0 143 29.5 238t93.5 159q108 108 275 108q190 0 293.5 -130t103.5 -369q0 -147 -29 -242.5t-94 -161.5q-108 -108 -274 -108q-167 0 -275 108q-64 64 -93.5 159.5t-29.5 238.5zM246 494q0 -132 19.5 -205.5t68.5 -124.5q81 -84 205 -84q123 0 204 84 q47 50 67.5 124t20.5 201q0 134 -19.5 208.5t-68.5 125.5q-81 84 -204 84q-124 0 -205 -84q-48 -50 -68 -124.5t-20 -204.5z" />
<glyph unicode="&#x43f;" horiz-adv-x="1144" d="M199 0v987h747v-987h-104v899h-539v-899h-104z" />
<glyph unicode="&#x440;" horiz-adv-x="1105" d="M199 -471v1458h104v-127q61 77 121.5 108t163.5 31q191 0 284 -125.5t93 -381.5q0 -504 -375 -504q-107 0 -168 32t-119 107v-598h-104zM303 494q0 -216 66.5 -315t212.5 -99q145 0 211.5 99t66.5 313q0 217 -66 316t-212 99q-145 0 -212 -99t-67 -314z" />
<glyph unicode="&#x441;" horiz-adv-x="1009" d="M141 494q0 236 117.5 370.5t323.5 134.5q105 0 172 -34t147 -117l-72 -66q-61 66 -115 95.5t-134 29.5q-177 0 -267 -131q-37 -52 -52 -117t-15 -167q0 -100 15.5 -165.5t51.5 -115.5q91 -131 265 -131q81 0 135 29t116 96l72 -66q-78 -83 -146 -117t-173 -34 q-206 0 -323.5 135t-117.5 371z" />
<glyph unicode="&#x442;" horiz-adv-x="837" d="M20 899v88h797v-88h-336v-899h-104v899h-357z" />
<glyph unicode="&#x443;" horiz-adv-x="880" d="M29 987h114l297 -864l297 864h115l-459 -1255q-18 -46 -32 -70.5t-35 -44.5q-69 -63 -187 -63h-49v92h39q77 0 114 28t66 107l80 219z" />
<glyph unicode="&#x444;" horiz-adv-x="1366" d="M123 494q0 239 133.5 372t374.5 133v459h104v-459q241 0 374.5 -133t133.5 -372t-136.5 -372.5t-371.5 -133.5v-459h-104v459q-235 0 -371.5 133.5t-136.5 372.5zM227 492q0 -188 102 -300t302 -112v827q-88 0 -158 -22t-115.5 -59.5t-75.5 -90.5t-42.5 -113t-12.5 -130z M735 80q200 0 302 112t102 300q0 70 -12.5 130t-42.5 113t-75.5 90.5t-115.5 59.5t-158 22v-827z" />
<glyph unicode="&#x445;" horiz-adv-x="942" d="M82 0l334 504l-320 483h127l250 -397l246 397h127l-320 -483l334 -504h-127l-260 416l-264 -416h-127z" />
<glyph unicode="&#x446;" horiz-adv-x="1173" d="M199 0v987h104v-899h539v899h104v-899h154v-416h-105v328h-796z" />
<glyph unicode="&#x447;" horiz-adv-x="1064" d="M162 668v319h104v-317q0 -193 211 -193h285v510h104v-987h-104v389h-285q-150 0 -232.5 69t-82.5 210z" />
<glyph unicode="&#x448;" horiz-adv-x="1624" d="M199 0v987h104v-899h457v899h104v-899h457v899h104v-987h-1226z" />
<glyph unicode="&#x449;" horiz-adv-x="1652" d="M199 0v987h104v-899h457v899h104v-899h457v899h104v-899h154v-416h-104v328h-1276z" />
<glyph unicode="&#x44a;" horiz-adv-x="1193" d="M20 899v88h457v-405h330q138 0 221.5 -79.5t83.5 -211.5t-83.5 -211.5t-221.5 -79.5h-434v899h-353zM477 88h314q106 0 161.5 52.5t55.5 150.5q0 97 -56 150t-161 53h-314v-406z" />
<glyph unicode="&#x44b;" horiz-adv-x="1437" d="M199 0v987h104v-405h330q138 0 221.5 -79.5t83.5 -211.5t-83.5 -211.5t-221.5 -79.5h-434zM303 88h313q106 0 162 52.5t56 150.5q0 97 -56.5 150t-161.5 53h-313v-406zM1108 0v987h104v-987h-104z" />
<glyph unicode="&#x44c;" horiz-adv-x="1019" d="M199 0v987h104v-405h330q138 0 221.5 -79.5t83.5 -211.5t-83.5 -211.5t-221.5 -79.5h-434zM303 88h313q106 0 162 52.5t56 150.5q0 97 -56.5 150t-161.5 53h-313v-406z" />
<glyph unicode="&#x44d;" horiz-adv-x="1009" d="M109 139l71 66q62 -67 116.5 -96t135.5 -29q87 0 152.5 31t104 86t57 123.5t18.5 150.5h-469v84h467q-8 158 -92 255t-240 97q-80 0 -134.5 -30t-115.5 -95l-71 66q80 83 147 117t172 34q206 0 323 -134.5t117 -370.5t-117.5 -371t-322.5 -135q-105 0 -173 34t-146 117z " />
<glyph unicode="&#x44e;" horiz-adv-x="1458" d="M199 0v987h104v-436h221q5 119 34 200.5t87 139.5q108 108 275 108q190 0 293.5 -130t103.5 -369q0 -147 -29 -242.5t-94 -161.5q-108 -108 -274 -108q-167 0 -275 108q-61 61 -90.5 149t-32.5 218h-219v-463h-104zM627 494q0 -132 19.5 -205.5t68.5 -124.5 q81 -84 205 -84q123 0 204 84q47 50 67.5 124t20.5 201q0 134 -19.5 208.5t-68.5 125.5q-81 84 -204 84q-124 0 -205 -84q-48 -50 -68 -124.5t-20 -204.5z" />
<glyph unicode="&#x44f;" horiz-adv-x="1062" d="M121 696q0 132 83.5 211.5t221.5 79.5h438v-987h-104v401h-277l-233 -401h-127l246 406q-114 17 -181 95t-67 195zM227 694q0 -98 56.5 -151.5t162.5 -53.5h314v410h-314q-106 0 -162.5 -53.5t-56.5 -151.5z" />
<glyph unicode="&#x451;" horiz-adv-x="1071" d="M141 500q0 233 105.5 366t290.5 133q184 0 289.5 -128.5t105.5 -352.5v-47h-686q3 -82 10 -125t25 -84q73 -180 288 -180q79 0 140 24q32 13 58 32t73 63l78 -62q-53 -52 -87 -76t-79 -43q-74 -32 -187 -32q-209 0 -316.5 129.5t-107.5 382.5zM246 555h581q-5 99 -18 141 q-29 99 -101 155t-171 56q-86 0 -154 -44.5t-102 -121.5q-30 -66 -35 -186zM252 1305q0 32 22.5 54.5t53.5 22.5t54.5 -22t23.5 -51q0 -33 -22.5 -56.5t-53.5 -23.5q-32 0 -55 22.5t-23 53.5zM676 1305q0 32 22.5 54.5t53.5 22.5t54 -22t23 -51q0 -34 -22 -57t-53 -23 q-32 0 -55 22.5t-23 53.5z" />
<glyph unicode="&#x452;" horiz-adv-x="1144" d="M74 909v78h125v471h104v-471h520v-78h-520v-284q65 68 136.5 98.5t166.5 30.5q166 0 259 -99t93 -270v-559q0 -129 -71.5 -213t-206.5 -84h-90v92h72q89 0 140.5 58t51.5 149v539q0 144 -65.5 219.5t-196.5 75.5q-133 0 -211 -78.5t-78 -216.5v-367h-104v909h-125z" />
<glyph unicode="&#x453;" horiz-adv-x="841" d="M207 0v987h614v-88h-510v-899h-104zM354 1208l199 301h137l-217 -301h-119z" />
<glyph unicode="&#x454;" horiz-adv-x="1009" d="M141 494q0 236 117.5 370.5t323.5 134.5q105 0 172 -34t147 -117l-72 -66q-61 66 -115 95.5t-134 29.5q-156 0 -240 -97t-92 -255h467v-84h-469q0 -82 18.5 -150.5t57 -123.5t104 -86t152.5 -31q81 0 135 29t116 96l72 -66q-78 -83 -146 -117t-173 -34q-206 0 -323.5 135 t-117.5 371z" />
<glyph unicode="&#x455;" horiz-adv-x="1011" d="M102 129l72 72q39 -36 63 -52.5t58 -31.5q87 -37 207 -37q143 0 218 51.5t75 149.5q0 150 -189 165l-164 15q-297 24 -297 256q0 129 96 205.5t259 76.5q106 0 207 -32q41 -14 68.5 -28t70.5 -44l-70 -70q-61 42 -117 60q-77 24 -159 24q-121 0 -186.5 -50t-65.5 -142 q0 -75 48.5 -115t152.5 -49l159 -14q151 -13 220 -74t69 -180q0 -140 -108 -218.5t-300 -78.5q-127 0 -233 41q-45 19 -75 38.5t-79 61.5z" />
<glyph unicode="&#x456;" horiz-adv-x="501" d="M174 1393q0 32 22.5 54.5t53.5 22.5t54.5 -22t23.5 -51q0 -33 -22.5 -56.5t-53.5 -23.5q-32 0 -55 22.5t-23 53.5zM199 0v987h104v-987h-104z" />
<glyph unicode="&#x457;" horiz-adv-x="501" d="M-37 1305q0 32 22.5 54.5t53.5 22.5t54.5 -22t23.5 -51q0 -33 -22.5 -56.5t-53.5 -23.5q-32 0 -55 22.5t-23 53.5zM199 0v987h104v-987h-104zM387 1305q0 32 22.5 54.5t53.5 22.5t54.5 -22t23.5 -51q0 -33 -22.5 -56.5t-53.5 -23.5q-32 0 -55 22.5t-23 53.5z" />
<glyph unicode="&#x458;" horiz-adv-x="501" d="M-25 -379h72q82 0 117 38.5t35 127.5v1200h104v-1202q0 -122 -61.5 -189t-175.5 -67h-91v92zM174 1393q0 32 22.5 54.5t53.5 22.5t54.5 -22t23.5 -51q0 -33 -22.5 -56.5t-53.5 -23.5q-32 0 -55 22.5t-23 53.5z" />
<glyph unicode="&#x459;" horiz-adv-x="1662" d="M53 0v88h51q26 0 47.5 4.5t48 16.5t46.5 38t38.5 64.5t29 100t12.5 141.5l14 534h606v-405h330q138 0 221.5 -79.5t83.5 -211.5t-83.5 -211.5t-221.5 -79.5h-434v899h-400l-14 -485q-11 -414 -309 -414h-66zM946 88h314q106 0 161.5 52.5t55.5 150.5q0 97 -56 150 t-161 53h-314v-406z" />
<glyph unicode="&#x45a;" horiz-adv-x="1662" d="M199 0v987h104v-405h539v405h104v-405h330q138 0 221.5 -79.5t83.5 -211.5t-83.5 -211.5t-221.5 -79.5h-434v494h-539v-494h-104zM946 88h314q106 0 161.5 52.5t55.5 150.5q0 97 -56 150t-161 53h-314v-406z" />
<glyph unicode="&#x45b;" horiz-adv-x="1144" d="M74 909v78h125v471h104v-471h520v-78h-520v-284q66 69 132.5 99t160.5 30q167 0 264.5 -99.5t97.5 -269.5v-385h-104v367q0 143 -70 219t-202 76t-205.5 -77.5t-73.5 -217.5v-367h-104v909h-125z" />
<glyph unicode="&#x45c;" horiz-adv-x="1073" d="M203 0v987h104v-577l510 577h133l-356 -401l414 -586h-131l-353 508l-217 -246v-262h-104zM395 1208l199 301h137l-217 -301h-119z" />
<glyph unicode="&#x45e;" horiz-adv-x="880" d="M29 987h114l297 -864l297 864h115l-459 -1255q-18 -46 -32 -70.5t-35 -44.5q-69 -63 -187 -63h-49v92h39q77 0 114 28t66 107l80 219zM115 1438h96q45 -164 231 -164q183 0 228 164h96q-58 -256 -326 -256q-267 0 -325 256z" />
<glyph unicode="&#x45f;" horiz-adv-x="1144" d="M199 0v987h104v-899h539v899h104v-987h-321v-328h-105v328h-321z" />
<glyph unicode="&#x490;" horiz-adv-x="1155" d="M242 0v1458h753v389h111v-487h-754v-1360h-110z" />
<glyph unicode="&#x491;" horiz-adv-x="841" d="M207 0v987h510v328h104v-416h-510v-899h-104z" />
<glyph unicode="&#x2000;" horiz-adv-x="949" />
<glyph unicode="&#x2001;" horiz-adv-x="1898" />
<glyph unicode="&#x2002;" horiz-adv-x="949" />
<glyph unicode="&#x2003;" horiz-adv-x="1898" />
<glyph unicode="&#x2004;" horiz-adv-x="632" />
<glyph unicode="&#x2005;" horiz-adv-x="474" />
<glyph unicode="&#x2006;" horiz-adv-x="316" />
<glyph unicode="&#x2007;" horiz-adv-x="316" />
<glyph unicode="&#x2008;" horiz-adv-x="237" />
<glyph unicode="&#x2009;" horiz-adv-x="379" />
<glyph unicode="&#x200a;" horiz-adv-x="105" />
<glyph unicode="&#x2010;" horiz-adv-x="872" d="M168 492v96h537v-96h-537z" />
<glyph unicode="&#x2011;" horiz-adv-x="872" d="M168 492v96h537v-96h-537z" />
<glyph unicode="&#x2012;" horiz-adv-x="872" d="M168 492v96h537v-96h-537z" />
<glyph unicode="&#x2013;" horiz-adv-x="1024" d="M0 492v96h1024v-96h-1024z" />
<glyph unicode="&#x2014;" horiz-adv-x="2048" d="M0 492v96h2048v-96h-2048z" />
<glyph unicode="&#x2018;" horiz-adv-x="532" d="M160 1206l110 355h101l-76 -355h-135z" />
<glyph unicode="&#x2019;" horiz-adv-x="532" d="M160 1206l76 355h135l-111 -355h-100z" />
<glyph unicode="&#x201a;" horiz-adv-x="532" d="M160 -199l76 355h135l-111 -355h-100z" />
<glyph unicode="&#x201c;" horiz-adv-x="851" d="M160 1206l110 355h101l-76 -355h-135zM479 1206l111 355h100l-76 -355h-135z" />
<glyph unicode="&#x201d;" horiz-adv-x="851" d="M160 1206l76 355h135l-111 -355h-100zM479 1206l76 355h135l-110 -355h-101z" />
<glyph unicode="&#x201e;" horiz-adv-x="851" d="M160 -199l76 355h135l-111 -355h-100zM479 -199l76 355h135l-110 -355h-101z" />
<glyph unicode="&#x2022;" horiz-adv-x="1118" d="M225 684q0 138 98 236t236 98q135 0 234.5 -97.5t99.5 -230.5q0 -142 -97 -241t-237 -99q-138 0 -236 98t-98 236z" />
<glyph unicode="&#x2026;" horiz-adv-x="1482" d="M176 88q0 38 28 66t66 28t66.5 -27.5t28.5 -64.5q0 -40 -28.5 -68t-66.5 -28t-66 28t-28 66zM647 88q0 38 28 66t66 28t66.5 -27.5t28.5 -64.5q0 -40 -28 -68t-67 -28q-38 0 -66 28t-28 66zM1118 88q0 38 28 66t66 28t66.5 -27.5t28.5 -64.5q0 -40 -28.5 -68t-66.5 -28 t-66 28t-28 66z" />
<glyph unicode="&#x202f;" horiz-adv-x="379" />
<glyph unicode="&#x2039;" horiz-adv-x="655" d="M86 543l401 401v-135l-266 -266l266 -267v-135z" />
<glyph unicode="&#x203a;" horiz-adv-x="655" d="M168 141v135l266 267l-266 266v135l401 -401z" />
<glyph unicode="&#x205f;" horiz-adv-x="474" />
<glyph unicode="&#x20ac;" d="M57 559l29 86h96q-2 20 -2 86q0 63 2 88h-125l29 86h102q13 125 46 225t88.5 177.5t142 120t197.5 42.5q102 0 181.5 -29t123.5 -71v-108q-108 112 -297 112q-71 0 -130.5 -24.5t-102.5 -67t-74 -102t-49 -128t-25 -147.5h583l-26 -86h-565q-2 -25 -2 -88t2 -86h507 l-28 -86h-469q22 -230 119.5 -352.5t261.5 -122.5q180 0 295 115v-113q-41 -40 -122 -68t-186 -28q-201 0 -320.5 141t-148.5 428h-133z" />
<glyph unicode="&#x2122;" horiz-adv-x="1656" d="M66 1374v84h589v-84h-249v-790h-91v790h-249zM817 584v874h90l273 -553l272 553h90v-874h-90v671l-225 -446h-94l-226 446v-671h-90z" />
<glyph unicode="&#x25fc;" horiz-adv-x="983" d="M0 0v983h983v-983h-983z" />
</font>
</defs>
</svg>
